<?xml version="1.0" encoding="UTF-8"?><svg version="1.1" viewBox="0 0 20 20" xmlns="http://www.w3.org/2000/svg" xmlns:xlink="http://www.w3.org/1999/xlink"><!--Generated by IJSVG (https://github.com/iconjar/IJSVG)--><g fill="#FFF"><path d="M7.5,15c-0.076,0 -0.153,-0.017 -0.224,-0.053c-0.169,-0.085 -0.276,-0.258 -0.276,-0.447v-9c0,-0.189 0.107,-0.363 0.276,-0.447c0.169,-0.084 0.372,-0.066 0.524,0.047l6,4.5c0.126,0.094 0.2,0.243 0.2,0.4c0,0.157 -0.074,0.306 -0.2,0.4l-6,4.5c-0.088,0.066 -0.194,0.1 -0.3,0.1Zm0.5,-8.5v7l4.667,-3.5l-4.667,-3.5Z"></path><path d="M19.5,2h-19c-0.276,0 -0.5,0.224 -0.5,0.5v15c0,0.276 0.224,0.5 0.5,0.5h19c0.276,0 0.5,-0.224 0.5,-0.5v-15c0,-0.276 -0.224,-0.5 -0.5,-0.5Zm-16.5,9h-2v-2h2v2Zm0,-3h-2v-2h2v2Zm-2,4h2v2h-2v-2Zm3,-9h12v14h-12v-14Zm13,6h2v2h-2v-2Zm0,-1v-2h2v2h-2Zm0,4h2v2h-2v-2Zm2,-7h-2v-2h2v2Zm-16,-2v2h-2v-2h2Zm-2,12h2v2h-2v-2Zm16,2v-2h2v2h-2Z"></path></g></svg>